Patient4_TMGait_0pt5_02_left_16_EMG.mot
version=1
nRows=23
nColumns=33
inDegrees=no
endheader
time	1LAddLong	2LGlutMax	3LGlutMed	4LIliopsoas	5LSemiMemb	6LBicFemLong	7LRecFem	8LVastMed	9LVastLat	10LGasMed	11LTibAnt	12lTibPost	13LPeroneusLong	14LSol	15LExtDigLong	16LFlexDigLong	17RAddLong	18RGlutMax	19RGlutMed	20RIliopsoas	21RSemiMemb	22RBicFemLong	23RRecFem	24RVastMed	25RVastLat	26RGasMed	27RTibAnt	28RTibPost	29RPeroneusLong	30RSol	31RExtDigLong	32RFlexDigLong
20.7	0.002899	0.93491	0.094147	0.023193	-0.005341	-0.009155	0.16159	-0.001373	0.037537	-0.05249	0.01297	-0.049438	0.50873	-0.20081	-0.006256	-0.026093	0.058136	0.13336	0.028076	-0.006409	-0.026093	0.046692	0.32166	-0.045166	0.032196	0.000305	0.018005	-0.018921	-1.0641	0.26184	-0.002899	-0.000916
20.701	-0.000763	1.0066	-0.033875	0.023956	0.025024	0.01297	0.26367	0.011902	-0.024414	-0.083618	0.030823	0.002441	-0.38574	-0.16312	0.009613	-0.048523	0.037384	0.16419	0.028992	-0.02182	-0.005493	0.0737	0.32501	0.016632	0.026093	-0.007935	0.017242	-0.006561	-1.0918	0.13077	-0.003815	-0.002594
20.702	-0.014801	1.1099	-0.031433	-0.007019	0.037384	-0.065613	0.32181	0.001526	-0.12848	-0.097809	0.038605	0.000458	-0.36041	0.008392	0.043335	0.06897	0.045471	0.19196	0.053711	-0.050354	-0.037842	0.029449	0.34821	0.037842	0.030365	-0.00824	-0.031128	0.005035	-0.072784	0.25421	-0.001831	-0.007935
20.703	-0.009308	1.2041	-0.020752	-0.019379	0.001678	0.013123	0.30945	-0.00946	-0.22842	-0.083618	0.016327	0.018158	-0.090027	0.049133	0.069122	0.010071	0.027618	0.19836	0.072784	-0.073395	-0.07019	0.03006	0.30945	0.085144	0.03067	-0.002747	-0.040588	0.011139	0.38345	0.023346	-0.003967	-0.006561
20.704	0.007019	1.1589	-0.076447	-0.019531	-0.052338	0.056	0.27466	-0.024567	-0.26627	-0.054626	-0.00473	0.004578	0.42984	-0.10193	0.007477	-0.15839	0.032043	0.19363	0.13016	-0.052185	-0.05127	0.058899	0.37201	0.080109	0.022125	-0.000305	0.032806	-0.029602	0.039673	-0.33295	-0.005493	-0.008698
20.705	0.019226	1.2167	-0.17624	-0.004883	-0.036469	0.059052	0.1004	-0.023346	-0.24933	-0.035858	0.001373	0.001221	0.37445	-0.15732	-0.016937	0.14572	0.042114	0.18097	0.12756	-0.015869	0.012054	0.02182	0.38559	0.084381	0.026703	-0.000305	0.037994	-0.073853	0.095673	-0.099945	0.000305	-0.010529
20.706	0.00885	1.2331	-0.16159	0.007019	-0.04425	0.14282	0.10132	-0.00885	-0.39795	-0.052338	-0.013885	0.013733	0.35019	-0.11246	-0.054779	0.13916	0.041809	0.15182	0.1207	0.06485	0.032349	-0.007477	0.36087	0.054779	0.008087	0.002899	0.011902	-0.059204	0.62653	-0.014801	0.000763	-0.00061
20.707	-0.009918	1.2407	-0.19028	0.006866	-0.002899	0.079651	0.13916	-0.005341	-0.64529	-0.045776	0.011139	0.018921	-0.28	-0.019836	-0.024872	-0.10529	0.041962	0.14679	0.16846	-0.010071	0.006256	0.003815	0.32654	0.0383	0.020447	0.004272	-0.019073	0.01297	-0.042877	-0.61691	-0.000458	0.005493
20.708	-0.012054	1.2524	-0.10986	0.011597	0.029144	0.040131	0.16754	0.007782	-0.63477	-0.022278	0.011902	0.033417	-0.33691	-0.05249	-0.036926	-0.10193	0.007324	0.1358	0.16586	-0.069885	-0.003357	0.071564	0.38513	0.031281	0.027618	0.005798	-0.001831	0.057678	-0.49118	-0.73959	-0.001068	-0.011597
20.709	0.001678	1.3823	-0.023346	-0.007324	-0.022278	-0.18539	0.20783	0.011139	-0.4805	-0.020905	0.017395	0.028229	0.17181	0.038605	-0.049133	-0.009766	0.00412	0.14297	0.17349	-0.070496	0.008698	0.064087	0.3891	-0.039978	0.028992	0.009155	0.01236	0.04303	-0.07843	-0.44388	-0.003662	-0.006256
20.71	0.010529	1.3886	0.070801	-0.004272	-0.019073	-0.31265	0.27878	0.025024	-0.3714	-0.044556	0.005341	0.019684	0.38925	0.19531	0.030518	0.014496	0.02121	0.13916	0.12054	-0.021515	0	0.082092	0.3981	-0.049286	0.026855	0.010529	-0.010986	0.026093	0.52475	0.21164	-0.007019	-0.001526
20.711	0.01236	1.2508	-0.029449	0.002747	0.039825	-0.40298	0.39032	0.021973	-0.30075	-0.034485	0.003204	0.015564	0.048218	0.22064	0.070343	0.01709	0.042572	0.13153	0.032196	0.014954	0.028076	0.16525	0.44128	-0.097809	0.018616	0.006714	0.052795	0.005493	0.63995	0.39505	-0.00061	0
20.712	0.01297	1.2549	-0.15289	-0.004425	0.071869	-0.39291	0.4567	0.014496	-0.17944	-0.036469	-0.009766	0.014343	0.068817	0.051422	0.02121	0.014496	0.05722	0.097961	0.028534	-0.00946	0.008087	0.18951	0.41443	-0.12375	0.011444	0.015411	0.073853	-0.004425	0.81024	0.25055	-0.002289	0.005341
20.713	0.016479	1.1702	-0.23209	0.000458	0.048218	-0.24582	0.4361	0.006714	-0.11932	-0.073242	0.063019	0.027161	0.20889	0.090332	0.008392	0.009308	0.042725	0.10208	0.003662	0.021667	-0.034637	0.099335	0.4393	-0.11704	0.008545	0.00061	0.003815	-0.013733	0.62332	0.48233	-0.007324	0.003052
20.714	0.009003	1.0716	-0.15549	0.008545	-0.00412	-0.10696	0.36224	-0.005798	-0.018616	-0.15793	0.070496	0.023193	0.18295	0.10651	0.023651	0.00946	0.034637	0.14267	0.11185	0.010986	-0.087585	0.023956	0.45197	-0.1091	-0.009003	-0.005341	-0.027771	-0.00824	-0.22736	0.40466	-0.006256	0.006409
20.715	0.017242	0.96558	-0.10681	0.023956	-0.041199	-0.081482	0.38879	-0.01358	-0.002899	-0.20615	0.005341	0.036163	-0.20554	0.028381	-0.003052	0.030975	0.028381	0.12177	0.035095	-0.013275	-0.10315	-0.034637	0.50384	-0.13016	-0.001068	-0.021973	-0.019836	0.001526	-0.67978	0.17624	-0.00412	0.004578
20.716	0.007782	0.88257	-0.027618	0.014648	-0.05249	-0.040283	0.39871	-0.005951	-0.011292	-0.16159	0.033264	0.03006	-0.12192	-0.046539	0.021057	0.053711	0.045776	0.10223	0.044403	-0.059204	-0.12009	-0.03952	0.55649	-0.121	-0.002441	-0.02655	0.014343	-0.002899	-0.2626	-0.20371	-0.002289	0.000763
20.717	0.001984	0.77148	0.024109	0.014496	-0.089569	0.015564	0.30548	0.017242	-0.056763	-0.036011	0.024109	0.007935	0.14008	-0.045166	0.002747	0.04425	0.023193	0.080872	0.051117	0.031281	-0.10651	0.005493	0.51422	-0.095215	0.009003	-0.029602	0.007324	-0.022736	-0.093079	-0.46066	-0.002136	-0.002747
20.718	-0.005798	0.72311	-0.045776	0.021362	-0.024109	0.05249	0.26276	0.027313	-0.036926	0.090942	0.036774	0.11047	0.21561	-0.016937	-0.000916	0.055695	-0.027161	0.062866	0.002441	0.055542	-0.096283	-0.019379	0.50415	-0.1297	0.00885	-0.029144	0.021667	-0.38605	-0.17502	-0.76736	-0.002747	-0.000916
20.719	-0.003662	0.6868	-0.032196	0.007935	0.032806	0.067902	0.2298	0.035248	-0.005341	0.19089	0.024414	0.19943	0.33798	0.057983	0.023499	0.055237	-0.10712	0.065002	0.074158	0.081787	-0.10544	-0.026093	0.51468	-0.092926	-0.018768	-0.020142	0.050049	0.092621	-0.030212	-0.8078	-0.001373	-0.005493
20.72	0.00351	0.76645	0.073242	-0.010376	0.011444	0.084229	0.23605	0.019684	-0.008545	0.19959	-0.005035	-0.009308	0.044098	0.2594	0.035858	0.052948	-0.14572	0.073853	0.12421	0.11368	-0.072937	-0.006714	0.47516	-0.079498	0.001831	-0.024872	0.05249	0.15839	-0.030518	-0.50705	-0.001373	-0.014038
20.721	0.016022	0.82855	0.08194	-0.009766	0.00412	0.075073	0.20569	0.002441	0.040283	0.072327	0.012512	-0.076752	-0.66834	0.039215	0.007935	-0.039673	-0.12436	0.010376	0.054321	0.051117	-0.052185	0.074463	0.44418	-0.050812	0.001984	-0.014343	0.032043	0.056305	-0.12253	0.28503	0.001831	-0.005493
20.722	0.018005	0.85724	0.016327	-0.002136	-0.05188	0.10025	0.12833	0.006866	0.089111	-0.10712	0.018311	0.048523	-0.55176	-0.30533	-0.08606	-0.019073	-0.10681	-0.058899	-0.10605	0.003204	-0.063629	0.0737	0.43594	-0.010834	0.007019	-0.010223	0.04715	0.026245	-0.2214	0.62088	0.001221	-0.006409
